<svg id="Layer_1" data-name="Layer 1" xmlns="http://www.w3.org/2000/svg" xmlns:xlink="http://www.w3.org/1999/xlink" viewBox="0 0 318.16 325.28"><defs><style>.cls-1{fill:url(#linear-gradient);}</style><linearGradient id="linear-gradient" x1="33.09" y1="162.64" x2="285.07" y2="162.64" gradientUnits="userSpaceOnUse"><stop offset="0.03" stop-color="#6bbf60"/><stop offset="0.16" stop-color="#69bf6a"/><stop offset="0.36" stop-color="#5ebe81"/><stop offset="0.63" stop-color="#45beaa"/><stop offset="0.93" stop-color="#26b1e1"/><stop offset="1" stop-color="#3babe1"/></linearGradient></defs><path class="cls-1" d="M285.07,142.32h-9.13l-13.61,7.16a20.14,20.14,0,0,0-4.85-2l-17.12-4.29v-1.94a28.56,28.56,0,0,0,12.2-23.33v-7.1c0-15.79-12.37-29-27.58-29.46-.77,0-1.53,0-2.3,0L227.12,71,205.6,49.5l-12.68,8.26a68.8,68.8,0,0,0-15.22-6.31l-3.13-14.8h-31l-3.14,14.81a68.44,68.44,0,0,0-15.21,6.31l-12.69-8.26L91.06,71l4.36,10.4c-.16,0-.32,0-.49,0A28.47,28.47,0,0,0,65.6,109.8v8.13a28.51,28.51,0,0,0,12.2,23.32v1.95L66.63,146l-20.24-11.8H33.09V218.4l40,13.33h7.79l1-3.41,12.26,7.36a12.65,12.65,0,0,0,12.2,12.26,12.65,12.65,0,0,0,12.19,12.19,12.67,12.67,0,0,0,12.2,12.2,12.64,12.64,0,0,0,19.76,10l3.6,3.18a12.36,12.36,0,0,0,8.18,3.09H163a12.37,12.37,0,0,0,12.35-12.21,12.36,12.36,0,0,0,12.19-12.19A12.37,12.37,0,0,0,199.71,252a12.5,12.5,0,0,0,12.2-12.47c0-.41,0-.81-.06-1.22l73.22-36.6Zm-40.64-31.49v7.1a20.4,20.4,0,0,1-10.17,17.59l-2,1.17,0,12.86,20.3,5.08-44.69,23.52v-11A20.24,20.24,0,0,0,202,153L216,149.55V136.68l-2-1.17a20.36,20.36,0,0,1-10.16-17.58V109.8a20.31,20.31,0,0,1,21-20.3C235.59,89.82,244.43,99.39,244.43,110.83ZM165.21,175l-18.4-5.88a50.16,50.16,0,0,0-26-1.19l-2.33.52V167.2a12.19,12.19,0,0,1,9.23-11.83L151,149.55V136.68l-2-1.17a20.36,20.36,0,0,1-10.16-17.58V109.8a20.31,20.31,0,0,1,21-20.3c10.86.32,19.69,9.89,19.69,21.33v7.1a20.4,20.4,0,0,1-10.17,17.59l-2,1.17v12.86l23.28,5.82a12.19,12.19,0,0,1,9.23,11.83v15.23l-1,.53h-2.49l-25-7.14A25.15,25.15,0,0,0,165.21,175ZM119.35,97.48a44.67,44.67,0,0,1,79.29-.33,28.33,28.33,0,0,0-3,12.65v8.13a28.52,28.52,0,0,0,12.19,23.32v1.95l-16.26,4.07-16.26-4.07v-1.94a28.54,28.54,0,0,0,12.2-23.33v-7.1c0-15.79-12.37-29-27.58-29.46a28.46,28.46,0,0,0-29.32,28.43v8.13a28.52,28.52,0,0,0,12.19,23.32v1.95l-16.25,4.07-16.26-4.07v-1.94a28.55,28.55,0,0,0,12.19-23.33v-7.1A30,30,0,0,0,119.35,97.48ZM100.66,72.9l13-13,11.43,7.44L127.26,66a60.51,60.51,0,0,1,17.6-7.3l2.5-.6,2.82-13.33H168l2.82,13.33,2.5.59A60.81,60.81,0,0,1,190.9,66l2.19,1.34,11.42-7.44,13,13-4.61,10.79a28.54,28.54,0,0,0-8.58,5.71c-.16.16-.31.34-.47.5a52.78,52.78,0,0,0-89.64.25,28.44,28.44,0,0,0-9-6.36ZM85.93,149.55V136.68l-2-1.17a20.37,20.37,0,0,1-10.17-17.58V109.8a20.32,20.32,0,0,1,21-20.3c10.86.32,19.69,9.89,19.69,21.33v7.1a20.38,20.38,0,0,1-10.17,17.59l-2,1.17,0,12.86L116.13,153a20.24,20.24,0,0,0-5.82,14.16v3L97.63,173l.33-1.15.16-7.51L76.68,151.86Zm-44.71-7.23h3l29.23,17.05-14.75,59-17.44-5.82ZM74.39,223.6l-8-2.66,14.33-57.31L90,169v1.16L74.73,223.6Zm27.79,11.7a4.58,4.58,0,0,1,1.34-3.22l7.14-7.15a4.56,4.56,0,0,1,6.45,6.45L110,238.52a4.55,4.55,0,0,1-7.78-3.22Zm12.19,12.19a4.58,4.58,0,0,1,1.34-3.22l7.14-7.14a4.56,4.56,0,0,1,6.45,6.44l-7.15,7.15a4.56,4.56,0,0,1-7.78-3.23Zm12.2,12.2a4.6,4.6,0,0,1,1.33-3.23l7.14-7.14a4.56,4.56,0,0,1,6.45,6.44l-7.14,7.15a4.56,4.56,0,0,1-7.78-3.22Zm16.75,16.74a4.55,4.55,0,0,1-3.23-7.77l7.15-7.15a4.56,4.56,0,1,1,6.44,6.45l-7.14,7.14A4.59,4.59,0,0,1,143.32,276.43ZM163,280.5h-.75a4.22,4.22,0,0,1-2.8-1.06l-3-2.68,3.05-3.06a12.71,12.71,0,0,0,2.56-3.77l3.69,3.07a4.24,4.24,0,0,1-2.71,7.5Zm36.45-36.58h-.71a4.37,4.37,0,0,1-2.79-1l-22-18.37-5.21,6.25,21.4,17.83a4.24,4.24,0,0,1-2.71,7.49h-.89a4.25,4.25,0,0,1-2.71-1l-22.08-18.39-5.2,6.24,21.4,17.84a4.24,4.24,0,0,1-2.72,7.49,6.71,6.71,0,0,1-4.27-1.55l-9.07-7.56a12.64,12.64,0,0,0-10.92-7.1,12.66,12.66,0,0,0-12.19-12.2,12.64,12.64,0,0,0-12.19-12.19,12.65,12.65,0,0,0-21.61-8.52l-7.14,7.14a12.57,12.57,0,0,0-1.14,1.39l-12.48-7.49,10.94-38.3,27.44-6.1a41.91,41.91,0,0,1,21.8,1l6,1.92L130,188.88a13.54,13.54,0,0,0-7.52,12.17v.81a13.62,13.62,0,0,0,20.62,11.67l15.14-9.08a8.39,8.39,0,0,1,9.74.94l34.34,30.91a4.37,4.37,0,0,1-2.92,7.62Zm77.52-47.22-68.47,34.24c-.22-.23-.45-.46-.7-.68l-34.33-30.9a16.33,16.33,0,0,0-19.37-1.87l-15.14,9.07a5.37,5.37,0,0,1-2.81.78,5.48,5.48,0,0,1-5.49-5.48v-.81a5.44,5.44,0,0,1,3-4.9l22.67-11.34A17.7,17.7,0,0,1,169,183.64l25.54,7.29,6.19.16L276.94,151Z"/></svg>