<?xml version="1.0" standalone="no"?>
<!DOCTYPE svg PUBLIC "-//W3C//DTD SVG 20010904//EN"
 "http://www.w3.org/TR/2001/REC-SVG-20010904/DTD/svg10.dtd">
<svg version="1.0" xmlns="http://www.w3.org/2000/svg"
 width="150.000000pt" height="150.000000pt" viewBox="0 0 150.000000 150.000000"
 preserveAspectRatio="xMidYMid meet">

<g transform="translate(0.000000,150.000000) scale(0.100000,-0.100000)"
fill="#000000" stroke="none">
<path d="M1090 1405 c-30 -25 -62 -45 -71 -45 -9 0 -48 18 -85 40 -38 22 -74
40 -80 40 -6 0 -19 -9 -29 -20 -17 -19 -17 -23 -1 -83 21 -79 54 -138 86 -154
14 -7 62 -13 112 -13 69 0 90 4 104 17 23 24 62 114 70 163 8 47 -11 100 -35
100 -9 0 -41 -20 -71 -45z"/>
<path d="M846 1079 c-86 -95 -176 -270 -176 -342 l0 -44 -107 -7 c-60 -3 -120
-9 -135 -12 -22 -5 -28 -3 -28 10 0 14 -21 16 -185 16 l-185 0 2 -297 3 -298
182 -3 182 -2 3 42 3 43 60 -1 c52 -1 73 -7 145 -47 110 -59 182 -79 283 -79
157 1 253 47 406 196 143 139 171 178 171 236 0 69 -56 130 -121 130 -20 0
-21 3 -13 48 4 26 7 61 7 78 -2 53 -61 186 -121 274 l-58 85 -130 1 c-72 0
-136 4 -141 7 -6 4 -27 -11 -47 -34z m162 -151 c17 -17 15 -63 -3 -78 -13 -11
-13 -16 5 -45 26 -41 25 -45 -5 -45 -14 0 -29 8 -35 19 -12 24 -39 51 -50 51
-4 0 -7 -15 -6 -32 1 -27 -3 -34 -21 -36 -22 -3 -23 -1 -23 87 l0 91 63 0 c36
0 68 -5 75 -12z m157 -51 c20 -28 19 -81 -1 -101 -8 -9 -29 -16 -45 -16 -24 0
-29 -4 -29 -25 0 -18 -5 -25 -20 -25 -19 0 -20 7 -20 93 l0 94 50 1 c40 1 52
-3 65 -21z m-362 -266 c91 -24 202 -79 243 -122 21 -22 29 -40 29 -69 0 -83
-67 -101 -209 -56 -76 24 -86 22 -86 -14 0 -15 158 -60 210 -60 57 0 94 26
134 94 14 24 60 76 103 115 65 61 82 71 113 71 70 0 105 -55 77 -121 -8 -19
-68 -87 -134 -151 -156 -154 -209 -181 -364 -186 -128 -5 -184 9 -305 75 -64
34 -99 46 -144 50 l-60 6 0 188 0 188 33 5 c17 3 43 8 57 10 53 10 228 -4 303
-23z"/>
<path d="M919 907 c0 -1 -2 -10 -4 -20 -3 -15 2 -18 28 -15 37 3 38 20 2 30
-14 3 -25 6 -26 5z"/>
<path d="M1097 854 c-12 -12 -8 -41 7 -53 17 -14 39 9 34 36 -3 18 -29 29 -41
17z"/>
</g>
</svg>
